<?xml version="1.0" encoding="UTF-8" standalone="no"?>
<!-- Created with Inkscape (http://www.inkscape.org/) -->

<svg
   width="640"
   height="65"
   viewBox="0 0 169.33333 17.197917"
   version="1.1"
   id="svg5"
   inkscape:version="1.2.2 (732a01da63, 2022-12-09)"
   sodipodi:docname="navbar-logo.svg"
   xmlns:inkscape="http://www.inkscape.org/namespaces/inkscape"
   xmlns:sodipodi="http://sodipodi.sourceforge.net/DTD/sodipodi-0.dtd"
   xmlns="http://www.w3.org/2000/svg"
   xmlns:svg="http://www.w3.org/2000/svg">
  <sodipodi:namedview
     id="namedview7"
     pagecolor="#ffffff"
     bordercolor="#000000"
     borderopacity="0.25"
     inkscape:showpageshadow="2"
     inkscape:pageopacity="0.0"
     inkscape:pagecheckerboard="0"
     inkscape:deskcolor="#d1d1d1"
     inkscape:document-units="mm"
     showgrid="false"
     inkscape:lockguides="false"
     inkscape:zoom="0.99999999"
     inkscape:cx="68.500001"
     inkscape:cy="-121"
     inkscape:window-width="1920"
     inkscape:window-height="1009"
     inkscape:window-x="1912"
     inkscape:window-y="-8"
     inkscape:window-maximized="1"
     inkscape:current-layer="svg5">
    <inkscape:grid
       type="xygrid"
       id="grid10006"
       originx="0"
       originy="0" />
  </sodipodi:namedview>
  <defs
     id="defs2">
    <rect
       x="557.42188"
       y="218.35938"
       width="127.34375"
       height="149.21875"
       id="rect341" />
  </defs>
  <text
     xml:space="preserve"
     style="font-style:normal;font-variant:normal;font-weight:bold;font-stretch:normal;font-size:18.3444px;line-height:10.9474px;font-family:Amiri;-inkscape-font-specification:'Amiri Bold';font-variant-ligatures:normal;font-variant-caps:normal;font-variant-numeric:normal;font-variant-east-asian:normal;text-align:center;writing-mode:lr-tb;text-anchor:middle;display:inline;fill:#000000;stroke-width:0.265205"
     x="19.055944"
     y="16.521305"
     id="text526"
     transform="scale(1.023548,0.97699375)"
     inkscape:label="HMNCONSULTING"><tspan
       sodipodi:role="line"
       style="font-style:normal;font-variant:normal;font-weight:bold;font-stretch:normal;font-size:18.3444px;font-family:Bahnschrift;-inkscape-font-specification:'Bahnschrift Bold';text-align:start;baseline-shift:baseline;text-anchor:start;fill:#dbdbdb;fill-opacity:1;stroke-width:0.265205"
       x="19.055944"
       y="16.521305"
       id="tspan540"><tspan
         id="tspan1910"
         style="font-style:normal;font-variant:normal;font-weight:bold;font-stretch:normal;font-size:18.3444px;font-family:Bahnschrift;-inkscape-font-specification:'Bahnschrift Bold';text-align:start;baseline-shift:baseline;text-anchor:start;fill:#ff0000;stroke-width:0.265205">HMN</tspan><tspan
         style="font-size:18.3444px;letter-spacing:-0.0926042px"
         id="tspan281">CONSULTING</tspan></tspan></text>
  <g
     data-name="outline color"
     id="outline_color"
     transform="matrix(0.281079,0,0,0.281079,-0.38889409,-0.59226086)">
    <path
       class="cls-1"
       d="M 35,60 H 26 A 1,1 0 0 1 25,59 V 39 a 1,1 0 0 1 1,-1 h 9 a 1,1 0 0 1 1,1 v 20 a 1,1 0 0 1 -1,1 z m -8,-2 h 7 V 40 h -7 z"
       id="path1341"
       style="fill:#f57c00" />
    <path
       class="cls-1"
       d="M 41,60 H 35 A 1,1 0 0 1 34,59 V 31 a 1,1 0 0 1 1.64,-0.77 l 6,5 A 1,1 0 0 1 42,36 v 23 a 1,1 0 0 1 -1,1 z m -5,-2 h 4 V 36.47 l -4,-3.33 z"
       id="path1343"
       style="fill:#f57c00" />
    <path
       class="cls-1"
       d="m 29,44 a 1,1 0 0 1 -0.38,-0.08 l -0.18,-0.09 -0.15,-0.12 a 1.15,1.15 0 0 1 -0.21,-0.33 0.94,0.94 0 0 1 0,-0.76 1.15,1.15 0 0 1 0.21,-0.33 l 0.15,-0.12 0.18,-0.09 a 1,1 0 0 1 1.09,0.21 1.15,1.15 0 0 1 0.21,0.33 0.94,0.94 0 0 1 0,0.76 1.15,1.15 0 0 1 -0.21,0.33 A 1.05,1.05 0 0 1 29,44 Z"
       id="path1345"
       style="fill:#f57c00" />
    <path
       class="cls-1"
       d="M 38,39 A 1.05,1.05 0 0 1 37.29,38.71 1,1 0 0 1 37.17,38.55 0.56,0.56 0 0 1 37.08,38.38 0.64,0.64 0 0 1 37,38.2 1.36,1.36 0 0 1 37,38 a 0.84,0.84 0 0 1 0.08,-0.38 1.15,1.15 0 0 1 0.21,-0.33 1,1 0 0 1 1.42,0 1.15,1.15 0 0 1 0.21,0.33 A 1,1 0 0 1 39,38 1,1 0 0 1 38,39 Z"
       id="path1347"
       style="fill:#f57c00" />
    <path
       class="cls-1"
       d="M 38,47 A 1,1 0 0 1 37.29,45.29 1,1 0 0 1 38.2,45 a 0.64,0.64 0 0 1 0.18,0.06 l 0.18,0.09 0.15,0.12 a 1,1 0 0 1 0,1.42 l -0.15,0.12 -0.18,0.09 a 0.64,0.64 0 0 1 -0.18,0.06 z"
       id="path1349"
       style="fill:#f57c00" />
    <path
       class="cls-1"
       d="M 44,50 A 1.05,1.05 0 0 1 43.29,49.71 1.27,1.27 0 0 1 43.07,49.38 1,1 0 0 1 43,49 a 0.68,0.68 0 0 1 0,-0.2 1.21,1.21 0 0 1 0,-0.18 1.62,1.62 0 0 1 0.1,-0.18 1.58,1.58 0 0 1 0.12,-0.15 1,1 0 0 1 0.98,-0.29 0.64,0.64 0 0 1 0.18,0.06 l 0.18,0.09 0.15,0.12 A 1,1 0 0 1 45,49 a 1,1 0 0 1 -0.08,0.38 1,1 0 0 1 -0.21,0.33 l -0.15,0.12 -0.18,0.09 a 0.64,0.64 0 0 1 -0.18,0.06 z"
       id="path1351"
       style="fill:#f57c00" />
    <path
       class="cls-1"
       d="m 50,50 h -0.2 a 0.64,0.64 0 0 1 -0.18,-0.06 l -0.18,-0.09 -0.15,-0.12 a 1.15,1.15 0 0 1 -0.21,-0.33 0.94,0.94 0 0 1 0,-0.76 1.15,1.15 0 0 1 0.21,-0.33 l 0.15,-0.12 0.18,-0.09 a 0.64,0.64 0 0 1 0.18,-0.1 0.86,0.86 0 0 1 0.39,0 0.6,0.6 0 0 1 0.19,0.06 0.56,0.56 0 0 1 0.17,0.09 l 0.16,0.12 a 1.15,1.15 0 0 1 0.21,0.33 0.94,0.94 0 0 1 0,0.76 1.15,1.15 0 0 1 -0.21,0.33 l -0.16,0.12 a 0.56,0.56 0 0 1 -0.17,0.09 0.6,0.6 0 0 1 -0.19,0.06 z"
       id="path1353"
       style="fill:#f57c00" />
    <path
       class="cls-1"
       d="M 53,50 H 52.8 A 0.64,0.64 0 0 1 52.62,49.94 L 52.44,49.85 52.29,49.73 A 1.05,1.05 0 0 1 52,49 a 1.36,1.36 0 0 1 0,-0.2 0.64,0.64 0 0 1 0.06,-0.18 0.76,0.76 0 0 1 0.09,-0.18 1.58,1.58 0 0 1 0.12,-0.15 l 0.15,-0.12 0.18,-0.09 a 0.64,0.64 0 0 1 0.2,-0.08 1,1 0 0 1 0.91,0.27 l 0.12,0.15 a 0.76,0.76 0 0 1 0.09,0.18 0.64,0.64 0 0 1 0.06,0.18 1.36,1.36 0 0 1 0,0.2 1,1 0 0 1 -1,1 z"
       id="path1355"
       style="fill:#f57c00" />
    <path
       class="cls-1"
       d="m 56,46 h -0.2 a 0.64,0.64 0 0 1 -0.18,-0.06 l -0.18,-0.09 -0.15,-0.12 a 1.15,1.15 0 0 1 -0.21,-0.33 0.94,0.94 0 0 1 0,-0.76 1,1 0 0 1 0.21,-0.33 l 0.15,-0.12 0.18,-0.09 a 0.64,0.64 0 0 1 0.18,-0.1 0.86,0.86 0 0 1 0.39,0 0.6,0.6 0 0 1 0.19,0.06 0.56,0.56 0 0 1 0.17,0.09 l 0.16,0.12 a 1,1 0 0 1 0.21,0.33 0.94,0.94 0 0 1 0,0.76 1,1 0 0 1 -0.21,0.33 1,1 0 0 1 -0.16,0.12 0.56,0.56 0 0 1 -0.17,0.09 0.6,0.6 0 0 1 -0.19,0.06 z"
       id="path1357"
       style="fill:#f57c00" />
    <path
       class="cls-1"
       d="m 44,54 a 1,1 0 0 1 -1,-1 0.71,0.71 0 0 1 0,-0.2 1.21,1.21 0 0 1 0,-0.18 1.78,1.78 0 0 1 0.22,-0.33 1,1 0 0 1 0.98,-0.29 0.64,0.64 0 0 1 0.18,0.06 l 0.18,0.09 0.15,0.12 A 1,1 0 0 1 45,53 1.05,1.05 0 0 1 44.71,53.71 l -0.15,0.12 -0.18,0.09 a 0.64,0.64 0 0 1 -0.18,0.06 z"
       id="path1359"
       style="fill:#f57c00" />
    <path
       class="cls-1"
       d="m 47,54 a 0.84,0.84 0 0 1 -0.38,-0.08 1,1 0 0 1 -0.33,-0.21 1.15,1.15 0 0 1 -0.21,-0.33 0.94,0.94 0 0 1 0,-0.76 1.15,1.15 0 0 1 0.21,-0.33 1,1 0 0 1 0.33,-0.21 1,1 0 0 1 0.58,-0.08 0.64,0.64 0 0 1 0.18,0.06 l 0.18,0.09 0.15,0.12 a 1,1 0 0 1 0.21,0.33 0.94,0.94 0 0 1 0,0.76 1.15,1.15 0 0 1 -0.21,0.33 l -0.15,0.12 -0.18,0.09 a 0.64,0.64 0 0 1 -0.18,0.06 z"
       id="path1361"
       style="fill:#f57c00" />
    <path
       class="cls-1"
       d="M 50,54 H 49.8 A 0.64,0.64 0 0 1 49.62,53.94 L 49.44,53.85 49.29,53.73 A 1,1 0 0 1 49.17,53.57 0.56,0.56 0 0 1 49.08,53.4 0.6,0.6 0 0 1 49.02,53.21 1.23,1.23 0 0 1 49,53 a 1.36,1.36 0 0 1 0,-0.2 0.64,0.64 0 0 1 0.06,-0.18 0.76,0.76 0 0 1 0.09,-0.18 1.58,1.58 0 0 1 0.12,-0.15 1,1 0 0 1 1.42,0 1,1 0 0 1 0.31,0.71 1.23,1.23 0 0 1 0,0.19 0.6,0.6 0 0 1 -0.06,0.19 0.56,0.56 0 0 1 -0.09,0.17 l -0.12,0.16 -0.16,0.12 a 0.56,0.56 0 0 1 -0.17,0.09 0.6,0.6 0 0 1 -0.19,0.06 z"
       id="path1363"
       style="fill:#f57c00" />
    <path
       class="cls-1"
       d="m 56,54 h -0.2 a 0.64,0.64 0 0 1 -0.18,-0.06 l -0.18,-0.09 -0.15,-0.12 a 1,1 0 0 1 -0.21,-0.33 0.94,0.94 0 0 1 0,-0.76 1,1 0 0 1 0.21,-0.33 l 0.15,-0.12 0.18,-0.09 a 0.64,0.64 0 0 1 0.18,-0.1 0.86,0.86 0 0 1 0.39,0 0.6,0.6 0 0 1 0.19,0.06 0.56,0.56 0 0 1 0.17,0.09 1,1 0 0 1 0.16,0.12 1,1 0 0 1 0.21,0.33 0.94,0.94 0 0 1 0,0.76 1,1 0 0 1 -0.21,0.33 1,1 0 0 1 -0.16,0.12 0.56,0.56 0 0 1 -0.17,0.09 0.6,0.6 0 0 1 -0.19,0.06 z"
       id="path1365"
       style="fill:#f57c00" />
    <path
       class="cls-1"
       d="M 38,51 A 1,1 0 0 1 37.29,49.29 1,1 0 0 1 38.2,49 a 0.64,0.64 0 0 1 0.18,0.06 l 0.18,0.09 0.15,0.12 a 1,1 0 0 1 0,1.42 l -0.15,0.12 -0.18,0.09 a 0.64,0.64 0 0 1 -0.18,0.06 z"
       id="path1367"
       style="fill:#f57c00" />
    <path
       class="cls-1"
       d="M 38,55 A 1,1 0 0 1 37.29,54.71 1.15,1.15 0 0 1 37.08,54.38 0.84,0.84 0 0 1 37,54 1.05,1.05 0 0 1 37.29,53.29 1,1 0 0 1 38.2,53 a 0.64,0.64 0 0 1 0.18,0.06 l 0.18,0.09 0.15,0.12 A 1.05,1.05 0 0 1 39,54 1,1 0 0 1 38.92,54.38 1.15,1.15 0 0 1 38.71,54.71 1.05,1.05 0 0 1 38,55 Z"
       id="path1369"
       style="fill:#f57c00" />
    <path
       class="cls-1"
       d="m 32,44 a 1,1 0 0 1 -1,-1 0.84,0.84 0 0 1 0.08,-0.38 1.15,1.15 0 0 1 0.21,-0.33 1,1 0 0 1 1.42,0 1.15,1.15 0 0 1 0.21,0.33 A 1,1 0 0 1 33,43 1,1 0 0 1 32,44 Z"
       id="path1371"
       style="fill:#f57c00" />
    <path
       class="cls-1"
       d="M 29,48 A 1,1 0 0 1 28.62,47.92 L 28.44,47.83 28.29,47.71 A 1.05,1.05 0 0 1 28,47 a 0.84,0.84 0 0 1 0.08,-0.38 1.15,1.15 0 0 1 0.21,-0.33 l 0.15,-0.12 0.18,-0.09 a 1,1 0 0 1 1.09,0.21 1.15,1.15 0 0 1 0.21,0.33 A 1,1 0 0 1 30,47 1,1 0 0 1 29,48 Z"
       id="path1373"
       style="fill:#f57c00" />
    <path
       class="cls-1"
       d="M 29,52 A 1,1 0 0 1 28.62,51.92 L 28.44,51.83 28.29,51.71 A 1.05,1.05 0 0 1 28,51 a 0.84,0.84 0 0 1 0.08,-0.38 1.15,1.15 0 0 1 0.21,-0.33 l 0.15,-0.12 0.18,-0.09 a 1,1 0 0 1 1.09,0.21 1.15,1.15 0 0 1 0.21,0.33 A 1,1 0 0 1 30,51 1,1 0 0 1 29,52 Z"
       id="path1375"
       style="fill:#f57c00" />
    <path
       class="cls-1"
       d="M 32,52 A 1.05,1.05 0 0 1 31.29,51.71 1.58,1.58 0 0 1 31.17,51.56 0.76,0.76 0 0 1 31.08,51.38 0.64,0.64 0 0 1 31,51.2 1.36,1.36 0 0 1 31,51 a 1,1 0 1 1 2,0 1.36,1.36 0 0 1 0,0.2 0.64,0.64 0 0 1 -0.06,0.18 0.76,0.76 0 0 1 -0.09,0.18 l -0.12,0.15 A 1.05,1.05 0 0 1 32,52 Z"
       id="path1377"
       style="fill:#f57c00" />
    <path
       class="cls-1"
       d="m 29,56 a 1,1 0 0 1 -0.38,-0.08 l -0.18,-0.09 -0.15,-0.12 a 1,1 0 0 1 0,-1.42 l 0.15,-0.12 0.18,-0.09 A 1,1 0 0 1 29.71,54.29 1,1 0 0 1 29,56 Z"
       id="path1379"
       style="fill:#f57c00" />
    <path
       class="cls-1"
       d="M 59,60 H 41 A 1,1 0 0 1 40,59 V 45 a 1,1 0 0 1 1,-1 h 9 v -3 a 1,1 0 0 1 1,-1 h 8 a 1,1 0 0 1 1,1 v 18 a 1,1 0 0 1 -1,1 z M 42,58 H 58 V 42 h -6 v 3 a 1,1 0 0 1 -1,1 h -9 z"
       id="path1381"
       style="fill:#f57c00" />
    <path
       class="cls-2"
       d="m 21.77,55.1 a 5,5 0 0 1 -4.56,-3 L 4.56,23.84 A 5,5 0 0 1 7.08,17.23 L 28.62,7.61 a 1,1 0 1 1 0.82,1.82 L 7.9,19.05 a 3,3 0 0 0 -1.52,4 L 19,51.32 a 3,3 0 0 0 2.91,1.77 1.0017984,1.0017984 0 1 1 0.12,2 z"
       id="path1383"
       style="fill:#999999" />
    <path
       class="cls-3"
       d="m 22.21,24.76 a 1,1 0 0 1 -1,-0.85 7.56,7.56 0 0 1 -0.08,-2.51 7.55,7.55 0 0 1 3.68,-5.44 1.09,1.09 0 0 1 0.5,-0.13 1,1 0 0 1 0.43,1.91 5.53,5.53 0 0 0 -2.63,3.9 v 0.06 a 5.52,5.52 0 0 0 0.06,1.9 1.49,1.49 0 0 1 0,0.21 1,1 0 0 1 -0.96,0.95 z"
       id="path1385"
       style="fill:#666666" />
    <path
       class="cls-3"
       d="m 16.56,37 a 1,1 0 0 1 -0.91,-0.59 l -4.49,-10 a 1,1 0 0 1 0,-0.77 1,1 0 0 1 0.52,-0.55 L 21.73,20.6 a 1,1 0 0 1 1.25,0.37 1.16,1.16 0 0 1 0.18,0.57 1,1 0 0 1 -0.86,1 l -8.89,4 3.8,8.5 a 0.93,0.93 0 0 1 0.53,0.52 1,1 0 0 1 -0.51,1.31 l -0.25,0.12 A 1.1,1.1 0 0 1 16.56,37 Z"
       id="path1387"
       style="fill:#666666" />
    <path
       class="cls-2"
       d="m 22,43.4 a 1,1 0 0 1 -0.41,-0.09 l -3.11,-1.39 a 5,5 0 0 1 -2.62,-6.37 1.54,1.54 0 0 1 0.08,-0.19 l 5.33,-11.93 c 0,0 0,-0.05 0,-0.08 L 28.61,7 a 5,5 0 0 1 6.6,-2.52 l 21.91,9.79 a 5,5 0 0 1 2.52,6.61 l -7.38,16.53 a 1,1 0 0 1 -1.82,-0.82 l 7.38,-16.52 a 3,3 0 0 0 -1.52,-4 L 34.39,6.31 a 3,3 0 0 0 -4,1.52 L 23.15,24.1 c 0,0 0,0 0,0.08 l -5.34,12 a 0.56,0.56 0 0 1 0,0.12 3,3 0 0 0 1.49,3.8 l 3.11,1.39 A 1,1 0 0 1 22,43.4 Z"
       id="path1389"
       style="fill:#999999" />
    <path
       class="cls-3"
       d="m 41,31.83 a 1,1 0 0 1 -1,-0.9 l -0.65,-6.38 -3.06,2.22 -0.08,0.05 -0.2,0.15 a 1,1 0 0 1 -1.2,-1.6 l 0.28,-0.21 0.1,-0.07 4.38,-3.18 a 1,1 0 0 1 1,-0.08 1,1 0 0 1 0.55,0.89 l 0.84,8 a 1,1 0 0 1 -0.9,1.09 z"
       id="path1391"
       style="fill:#666666" />
    <path
       class="cls-3"
       d="m 35.74,27 v 0 a 4.79,4.79 0 0 1 -0.65,0 1.0049876,1.0049876 0 0 1 0.2,-2 h 0.45 a 1,1 0 1 1 0,2 z"
       id="path1393"
       style="fill:#666666" />
    <path
       class="cls-3"
       d="m 31,25 a 1,1 0 0 1 -0.71,-0.3 7.45,7.45 0 0 1 -1.5,-8.32 7.49,7.49 0 0 1 14.26,2 7.34,7.34 0 0 1 -0.57,4.12 7.2,7.2 0 0 1 -1.43,2.12 1,1 0 1 1 -1.44,-1.38 5.49,5.49 0 0 0 1,-1.56 5.38,5.38 0 0 0 0.41,-3 A 5.5,5.5 0 1 0 31.66,23.3 1,1 0 0 1 31,25 Z"
       id="path1395"
       style="fill:#666666" />
    <path
       class="cls-3"
       d="m 40.2,23.73 a 1,1 0 0 1 -1,-1 v 0 a 1,1 0 1 1 1,1 z"
       id="path1397"
       style="fill:#666666" />
    <path
       class="cls-3"
       d="m 47.64,34 a 1,1 0 0 1 -0.41,-0.09 l -6.68,-3 a 1,1 0 0 1 0.82,-1.82 l 5.76,2.57 3.68,-8.22 -9,-4 a 1.06,1.06 0 0 1 -0.25,-0.09 1,1 0 0 1 -0.44,-1.33 v 0 a 1,1 0 0 1 1.3,-0.45 l 10,4.49 a 1,1 0 0 1 0.52,0.55 1,1 0 0 1 0,0.77 l -4.49,10 A 1,1 0 0 1 47.64,34 Z"
       id="path1399"
       style="fill:#666666" />
  </g>
</svg>
