<?xml version="1.0" encoding="UTF-8" standalone="no"?>
<!-- Created with Inkscape (http://www.inkscape.org/) -->

<svg
   version="1.1"
   id="svg2"
   width="225.00005"
   height="70"
   viewBox="0 0 225.00005 70.000002"
   sodipodi:docname="HMN_Logo_Isolated.svg"
   inkscape:version="1.2.2 (732a01da63, 2022-12-09)"
   inkscape:export-filename="HMN_Logo_Vector.png"
   inkscape:export-xdpi="96"
   inkscape:export-ydpi="96"
   xmlns:inkscape="http://www.inkscape.org/namespaces/inkscape"
   xmlns:sodipodi="http://sodipodi.sourceforge.net/DTD/sodipodi-0.dtd"
   xmlns="http://www.w3.org/2000/svg"
   xmlns:svg="http://www.w3.org/2000/svg">
  <defs
     id="defs6" />
  <sodipodi:namedview
     id="namedview4"
     pagecolor="#000000"
     bordercolor="#000000"
     borderopacity="0.25"
     inkscape:showpageshadow="2"
     inkscape:pageopacity="0"
     inkscape:pagecheckerboard="0"
     inkscape:deskcolor="#d1d1d1"
     showgrid="true"
     inkscape:zoom="2.0000001"
     inkscape:cx="135"
     inkscape:cy="-5.9999998"
     inkscape:window-width="1920"
     inkscape:window-height="1009"
     inkscape:window-x="1912"
     inkscape:window-y="-8"
     inkscape:window-maximized="1"
     inkscape:current-layer="layer1"
     showguides="true">
    <inkscape:grid
       type="xygrid"
       id="grid202" />
  </sodipodi:namedview>
  <g
     inkscape:groupmode="layer"
     id="layer1"
     inkscape:label="Layer 1"
     transform="translate(-50,-53.183553)">
    <path
       id="path464"
       style="fill:#ffffff;stroke-width:0.117307"
       d="M 50,88.186072 V 53.188669 h 8.928577 8.928578 v 13.079235 13.079233 h 13.42167 13.42167 V 66.267904 53.188669 h 8.928575 8.92858 v 34.997403 34.997408 h -8.92858 -8.928575 V 109.44731 95.711115 h -13.42167 -13.42167 v 13.736195 13.73617 H 58.928577 50 Z m 72.11986,0 V 53.188669 h 8.64057 8.64056 v 0 c 0,0 -0.18067,0.100243 0,0 0.19111,-0.106042 0.94703,1.373961 5.58942,10.30782 2.84032,5.465966 6.92388,13.324386 9.07454,17.463157 6.05511,11.652531 7.12146,13.676497 7.20525,13.67595 0.0428,-1.76e-4 1.14889,-2.056221 2.45797,-4.568769 11.9179,-22.874033 17.657,-33.907795 18.48212,-35.532985 l 0.68151,-1.342338 8.78457,-0.0014 8.78456,-0.0014 V 88.1861 123.18352 l -8.89977,2e-5 h -8.89978 l 0.0301,-15.31422 c 0.0188,-9.593071 -0.0104,-15.271335 -0.0786,-15.199411 -0.11263,0.119043 -15.01708,28.777461 -15.54315,29.886531 l -0.29744,0.62708 h -5.4287 -5.42869 l -7.99777,-15.40021 -7.99779,-15.400249 -0.0293,15.400249 -0.0293,15.40024 h -8.87054 -8.87055 z m 87.96089,-2e-5 V 53.188653 l 7.49174,7e-6 7.49172,9e-6 1.66092,2.000704 c 17.59881,21.199053 29.55996,35.571032 30.04235,36.097546 l 0.6062,0.661669 -0.029,-19.379973 -0.0145,-9.689991 -0.0145,-9.689989 8.84219,1.5e-5 8.84218,1.9e-5 v 34.997403 34.997408 l -7.4021,-0.004 -7.40207,-0.004 -14.11292,-17.03383 C 232.91077,90.242769 229.47772,86.107816 228.25361,84.66659 l -0.49064,-0.577686 0.0299,19.547306 0.0299,19.5473 -8.87098,-3e-5 -8.87098,-1e-5 z" />
  </g>
</svg>
