<?xml version="1.0" encoding="UTF-8" standalone="no"?>
<!-- Uploaded to: SVG Repo, www.svgrepo.com, Generator: SVG Repo Mixer Tools -->

<svg
   width="800px"
   height="800px"
   viewBox="0 0 64 64"
   version="1.1"
   id="svg1402"
   sodipodi:docname="favicon.svg"
   inkscape:version="1.2.2 (732a01da63, 2022-12-09)"
   xml:space="preserve"
   xmlns:inkscape="http://www.inkscape.org/namespaces/inkscape"
   xmlns:sodipodi="http://sodipodi.sourceforge.net/DTD/sodipodi-0.dtd"
   xmlns="http://www.w3.org/2000/svg"
   xmlns:svg="http://www.w3.org/2000/svg"><sodipodi:namedview
     id="namedview1404"
     pagecolor="#ffffff"
     bordercolor="#000000"
     borderopacity="0.25"
     inkscape:showpageshadow="2"
     inkscape:pageopacity="0.0"
     inkscape:pagecheckerboard="0"
     inkscape:deskcolor="#d1d1d1"
     showgrid="true"
     inkscape:zoom="0.518125"
     inkscape:cx="369.60193"
     inkscape:cy="537.51508"
     inkscape:window-width="1350"
     inkscape:window-height="956"
     inkscape:window-x="2151"
     inkscape:window-y="35"
     inkscape:window-maximized="0"
     inkscape:current-layer="svg1402"><inkscape:grid
       type="xygrid"
       id="grid407" /></sodipodi:namedview><defs
     id="defs1337"><style
       id="style1335">.cls-1{fill:#f57c00;}.cls-2{fill:#999;}.cls-3{fill:#666;}</style></defs><title
     id="title1339" /><path
     style="display:none;fill:#d45500;stroke-width:0.270859"
     d="m 7.626473,60.272776 c -1.1054255,-0.674024 -1.4393003,-1.31877 -1.4393003,-2.779433 0,-1.998134 1.3451123,-3.19296 3.5945743,-3.19296 h 1.183738 l 1.9141,-4.807759 1.914104,-4.807756 h 17.260574 17.260575 l 1.914102,4.807756 1.914103,4.807759 h 1.183737 c 1.353421,0 2.557988,0.53662 3.171844,1.413017 0.544763,0.777763 0.544763,2.896833 0,3.674596 C 56.472533,60.852944 57.408804,60.801094 32,60.8 9.198086,60.7989 8.46347,60.78307 7.626473,60.272776 Z M 19.282464,33.176368 21.21988,28.303932 h 10.834383 10.834384 l 1.937415,4.872436 1.937415,4.87244 H 32.054263 17.34505 Z m 4.900321,-12.394859 c 0.201148,-0.558648 1.176547,-3.087801 2.167571,-5.620337 2.241052,-5.7269503 2.607637,-6.1671993 5.260124,-6.3170787 2.173949,-0.1228357 3.634892,0.4126207 4.217664,1.5458457 0.200334,0.389588 1.242649,2.963245 2.316217,5.719241 1.073577,2.755996 2.014305,5.163261 2.090516,5.349477 0.109055,0.266492 -1.623747,0.338575 -8.13962,0.338575 h -8.278183 z"
     id="path393"
     inkscape:label="cone" /><path
     style="display:none;fill:#d45500;stroke-width:0.333719"
     d="M 2.8163962,59.647719 C 1.0165214,58.756791 -0.13967872,56.598775 0.20331774,54.770459 0.50074502,53.185011 27.472502,7.1204009 28.925968,5.7155204 29.543624,5.1185133 30.558235,4.551479 31.236519,4.424237 c 1.787346,-0.3353046 4.023672,0.6199834 5.009574,2.1399284 1.621295,2.4995503 26.656349,45.3209106 27.245811,46.6027796 0.781024,1.698444 0.773497,2.651701 -0.03505,4.433055 -0.495337,1.091359 -0.987059,1.583082 -2.078418,2.078416 -1.378938,0.625853 -2.416672,0.649089 -29.295154,0.655905 C 4.5312728,60.341372 4.2019468,60.333652 2.8163518,59.647719 Z M 17.489921,51.748636 c 0.290088,-0.321204 1.165655,-2.085745 1.945732,-3.921204 0.780075,-1.835455 1.454185,-3.386893 1.498018,-3.447634 0.04385,-0.06073 1.218584,0.615042 2.610559,1.501738 l 2.530856,1.612178 6.69e-4,1.809183 c 6.66e-4,2.06212 0.621917,3.029748 1.944982,3.029748 1.642738,0 2.0603,-0.811613 2.0603,-4.004633 0,-2.3502 -0.110718,-2.994222 -0.584008,-3.396821 -1.144592,-0.973656 -9.479053,-6.029218 -10.009002,-6.071317 -0.387491,-0.03086 -1.221451,1.462433 -2.958152,5.296646 -1.330188,2.936731 -2.429517,5.703122 -2.442947,6.147534 -0.05295,1.750711 2.245452,2.726372 3.403012,1.444582 z m 36.008611,0.03171 c 0.335681,-0.303767 0.610286,-0.91943 0.610286,-1.368144 0,-0.81908 -5.89493,-10.976667 -6.811962,-11.737745 -0.987489,-0.819533 -2.299568,-0.285956 -3.364104,1.368122 -0.551944,0.857602 -1.15371,1.78838 -1.337256,2.068389 -0.283537,0.432576 -0.82171,0.223257 -3.579931,-1.392424 l -3.246209,-1.901527 -1.401389,-3.504055 c -1.027174,-2.568375 -1.76466,-3.872523 -2.761839,-4.883943 -2.982442,-3.025045 -7.442534,-2.782501 -10.303872,0.560329 -1.358815,1.587475 -1.588257,2.907067 -0.648816,3.731563 0.321206,0.28191 4.713788,2.868431 9.761295,5.747841 5.047506,2.879403 9.30933,5.364541 9.47072,5.522519 0.167487,0.16394 -0.154844,1.015814 -0.750868,1.984448 -1.17455,1.908887 -1.29881,2.855137 -0.492003,3.74665 0.500877,0.553458 1.189852,0.610287 7.398981,0.610287 5.902588,0 6.930829,-0.07616 7.456967,-0.552307 z M 33.110163,25.32704 c 0.665771,-0.665769 0.975486,-1.309655 0.975486,-2.027986 0,-1.435632 -1.567843,-3.003474 -3.003474,-3.003474 -1.435631,0 -3.003477,1.567842 -3.003477,3.003474 0,0.718331 0.309734,1.362217 0.975488,2.027986 1.311522,1.311523 2.744454,1.311523 4.055977,0 z"
     id="path435" /><path
     style="fill:#d45500;stroke-width:0.297273"
     d="M 2.2534731,59.923544 C 1.1319555,59.455441 0.22521425,58.485359 0.01512725,57.52884 -0.12568475,56.887726 0.69747491,54.060854 3.2880772,46.288953 l 3.4610787,-10.383352 2.2854874,0.978612 c 1.2570197,0.538228 4.8891227,2.095362 8.0713357,3.460288 3.182218,1.364923 6.192102,2.844416 6.688637,3.287753 l 0.902783,0.806072 0.09047,6.387211 c 0.104306,7.363435 -0.047,8.085294 -1.876704,8.953538 -1.490412,0.707247 -2.973591,0.449458 -4.144473,-0.720353 L 17.86014,58.152997 17.711503,53.198155 17.562867,48.243308 14.738778,47.016792 c -1.553249,-0.674587 -3.049571,-1.311315 -3.325158,-1.414951 -0.424694,-0.159709 -0.826785,0.788775 -2.6380698,6.222896 -1.4808341,4.442719 -2.3766761,6.677076 -2.917567,7.27682 -0.8737879,0.968859 -2.4121195,1.31967 -3.6045006,0.821987 z m 28.2496629,-0.06017 c -0.982111,-0.496954 -2.08983,-2.190284 -2.08983,-3.194651 0,-0.446368 0.568534,-1.931531 1.263409,-3.300355 1.657458,-3.265016 2.45839,-3.820317 5.543501,-3.843431 l 2.259904,-0.0171 1.114771,-1.463678 c 0.613125,-0.805024 1.114771,-1.572564 1.114771,-1.705641 0,-0.133067 -8.327346,-3.70431 -18.505216,-7.936067 C 11.026577,34.170706 2.3415821,30.462648 1.9044586,30.162343 0.86778269,29.450145 0.58725391,28.158801 1.2083109,26.957804 1.9779496,25.469492 2.8906498,25.225116 4.9652222,25.951887 l 1.7544035,0.614607 1.3666998,-2.261245 c 2.1168625,-3.502397 3.1854785,-4.653828 5.2728115,-5.681416 3.33173,-1.64021 6.634753,-1.493267 10.558511,0.469709 2.358617,1.179968 4.366678,3.172002 5.556478,5.512135 0.447466,0.880086 1.702759,4.260871 2.78954,7.512855 l 1.975966,5.912699 3.998425,1.742797 c 2.199131,0.958536 4.213894,1.812455 4.477247,1.897595 0.340972,0.110244 1.093926,-0.663536 2.615487,-2.68783 1.341728,-1.785055 2.506107,-3.018812 3.129689,-3.31618 1.241313,-0.591937 2.815338,-0.343276 3.644078,0.575721 1.188213,1.317601 11.726339,19.275602 11.862613,20.215052 0.17736,1.222746 -0.36323,2.247772 -1.63877,3.107366 L 61.322634,60.24354 46.280015,60.23914 C 34.844173,60.235751 31.061339,60.145635 30.503136,59.863172 Z M 26.705891,15.3359 c -1.403093,-0.427333 -2.88623,-2.05338 -3.335053,-3.6564 -1.292484,-4.6163196 3.793822,-8.3362988 7.925888,-5.7967634 3.122645,1.9191501 3.102472,6.9241294 -0.03566,8.8636454 -1.180823,0.729786 -3.225639,0.994425 -4.555104,0.589518 z"
     id="path465" /></svg>
